<svg xmlns="http://www.w3.org/2000/svg" version="1.0" width="200.000000pt" height="200.000000pt" viewBox="0 0 200.000000 200.000000" preserveAspectRatio="xMidYMid meet">

<g transform="translate(0.000000,200.000000) scale(0.100000,-0.100000)" fill="#000000" stroke="none">
<path d="M0 1005 l0 -725 1000 0 1000 0 0 725 0 725 -1000 0 -1000 0 0 -725z m750 549 c0 -32 2 -34 33 -34 42 -1 105 -30 141 -66 31 -31 65 -97 66 -126 0 -10 7 -18 15 -18 17 0 17 1 20 -63 1 -28 -3 -53 -10 -61 -7 -7 -16 -32 -20 -57 -11 -64 -28 -100 -66 -137 -36 -35 -109 -62 -169 -62 -29 0 -44 -8 -80 -45 -60 -61 -72 -59 -68 10 3 56 20 76 26 30 4 -32 12 -32 47 5 25 26 36 30 82 30 142 0 206 85 207 275 0 90 -21 150 -70 199 -44 44 -83 56 -182 56 -74 0 -96 -4 -133 -23 -66 -35 -99 -89 -109 -178 -18 -162 31 -240 170 -270 57 -12 67 -29 17 -29 -84 0 -174 57 -199 126 -6 19 -18 34 -25 34 -31 0 -53 39 -53 95 0 51 2 57 30 74 17 10 42 41 56 70 40 79 119 130 207 131 35 0 37 2 37 33 0 19 3 37 6 40 13 13 24 -5 24 -39z m485 14 c11 0 33 4 48 7 21 6 36 2 57 -14 16 -11 44 -21 63 -21 32 0 77 -29 77 -51 0 -5 11 -14 25 -21 27 -12 60 -72 51 -94 -3 -7 3 -18 14 -24 28 -15 43 -48 47 -100 1 -25 6 -62 9 -83 5 -30 2 -45 -13 -65 -11 -15 -22 -47 -26 -72 -4 -33 -13 -51 -34 -67 -15 -12 -41 -35 -58 -52 -39 -38 -72 -54 -97 -48 -12 3 -27 -2 -40 -15 -16 -16 -28 -19 -66 -14 -59 7 -58 7 -109 0 -39 -6 -46 -3 -78 29 l-35 35 0 305 c0 296 1 305 21 331 28 35 56 47 94 39 17 -3 39 -6 50 -5z m-591 -274 c9 -8 16 -23 16 -31 0 -20 -29 -53 -46 -53 -19 0 -44 29 -44 50 0 22 25 50 45 50 7 0 21 -7 29 -16z m224 4 c17 -17 15 -54 -4 -72 -22 -23 -41 -20 -60 9 -15 23 -15 27 0 50 18 27 45 32 64 13z m-581 -695 l88 -107 3 107 3 107 29 0 30 0 0 -166 0 -165 -32 3 c-27 3 -45 19 -118 108 l-85 104 -3 -107 -3 -107 -29 0 -30 0 0 165 0 165 29 0 c26 0 42 -15 118 -107z m493 77 l0 -30 -95 0 -95 0 0 -40 0 -40 85 0 c84 0 85 0 85 -25 0 -25 -1 -25 -85 -25 l-85 0 0 -40 0 -40 95 0 95 0 0 -30 0 -30 -130 0 -130 0 0 165 0 165 130 0 130 0 0 -30z m176 -25 c21 -30 41 -55 44 -55 3 0 23 25 44 55 36 51 43 55 79 55 l39 0 -28 -37 c-15 -21 -43 -58 -61 -82 l-32 -43 65 -84 66 -84 -45 0 c-44 0 -46 1 -83 59 -44 67 -45 67 -94 -10 -29 -45 -35 -49 -71 -49 -21 0 -39 2 -39 5 0 3 25 39 55 79 30 40 55 78 55 85 0 11 -22 42 -103 149 -7 9 0 12 30 12 36 0 43 -4 79 -55z m399 -35 c27 -49 52 -90 55 -90 3 0 28 39 56 88 47 82 52 87 86 90 l36 3 7 -155 c4 -85 4 -159 0 -165 -3 -6 -19 -11 -36 -11 l-29 0 0 108 c-1 122 0 122 -73 3 -20 -33 -43 -61 -50 -61 -7 0 -35 37 -62 83 l-50 82 -3 -107 -3 -108 -29 0 -30 0 0 165 0 165 38 0 c37 0 38 -1 87 -90z m385 -39 c0 -149 -5 -141 101 -141 l69 0 0 -30 0 -30 -115 0 -115 0 0 165 0 165 30 0 30 0 0 -129z"/>
<path d="M1262 1542 c-10 -7 -9 -16 3 -45 18 -43 18 -47 5 -47 -5 0 -16 15 -24 34 -25 59 -76 72 -123 32 l-28 -24 0 -292 0 -292 28 -24 c15 -13 38 -24 50 -24 31 0 65 26 69 52 2 12 9 24 17 26 11 4 13 -4 7 -36 -5 -35 -3 -42 14 -47 28 -9 58 3 71 26 8 16 17 19 39 14 43 -9 66 1 89 40 11 19 27 35 35 35 23 0 57 51 54 81 -1 15 5 36 14 46 25 29 31 61 15 92 -9 19 -13 46 -10 74 5 38 2 47 -18 61 -13 9 -38 16 -56 16 -18 0 -33 5 -33 10 0 6 9 10 20 10 47 0 33 68 -20 95 -16 8 -30 22 -30 30 0 24 -45 40 -74 27 -21 -9 -27 -8 -40 14 -16 24 -49 31 -74 16z m-64 -74 c7 -7 12 -23 12 -37 0 -15 14 -40 36 -63 l37 -37 44 36 c25 21 42 42 39 50 -15 37 34 61 52 26 11 -21 5 -43 -11 -43 -7 0 -36 -22 -66 -48 -39 -35 -53 -53 -48 -65 14 -38 125 -7 113 31 -3 10 -2 23 3 30 12 20 45 10 49 -14 4 -29 -63 -72 -119 -76 -42 -3 -44 -5 -47 -35 l-3 -33 66 0 c65 0 66 1 111 46 35 34 49 43 58 34 8 -8 6 -14 -8 -22 -10 -5 -32 -23 -50 -39 l-31 -29 25 -19 c14 -11 34 -21 45 -23 30 -4 28 -52 -2 -56 -17 -3 -24 3 -29 25 -12 47 -41 62 -116 63 l-68 0 0 -39 c0 -33 7 -46 56 -95 60 -60 68 -91 24 -91 -21 0 -25 5 -26 33 -1 22 -11 43 -30 63 l-29 30 -23 -26 c-35 -41 -46 -25 -12 17 23 28 30 44 26 65 -2 15 -5 31 -5 36 -2 14 -60 7 -77 -10 -14 -15 -16 -31 -10 -115 5 -76 3 -98 -7 -98 -18 0 -10 209 9 231 26 29 14 76 -23 90 -34 13 -29 54 7 54 20 0 26 -6 32 -35 17 -84 20 -90 43 -90 23 0 35 30 35 89 0 26 -81 122 -115 134 -25 10 -12 67 15 67 3 0 11 -5 18 -12z m246 -414 c51 -51 56 -64 26 -64 -11 0 -20 7 -20 15 0 8 -13 30 -30 48 -27 32 -36 47 -26 47 2 0 24 -21 50 -46z"/>
<path d="M1170 1445 c0 -8 5 -15 10 -15 6 0 10 7 10 15 0 8 -4 15 -10 15 -5 0 -10 -7 -10 -15z"/>
<path d="M1386 1443 c-11 -11 -6 -23 9 -23 8 0 15 4 15 9 0 13 -16 22 -24 14z"/>
<path d="M1426 1343 c-11 -11 -6 -23 9 -23 8 0 15 4 15 9 0 13 -16 22 -24 14z"/>
<path d="M1166 1303 c-11 -11 -6 -23 9 -23 8 0 15 4 15 9 0 13 -16 22 -24 14z"/>
<path d="M1496 1123 c-11 -11 -6 -23 9 -23 8 0 15 4 15 9 0 13 -16 22 -24 14z"/>
<path d="M1361 976 c-9 -10 -9 -16 -1 -21 17 -10 37 12 24 25 -8 8 -15 6 -23 -4z"/>
</g>
</svg>